<svg width="88" height="50" viewBox="0 0 88 50" fill="none" xmlns="http://www.w3.org/2000/svg">
<path fill-rule="evenodd" clip-rule="evenodd" d="M78.539 0.0339213C72.46 0.0893639 72.0631 0.10483 71.0379 0.32618C68.4633 0.881868 66.2747 1.89467 64.3735 3.41003C63.7672 3.89334 63.2348 4.31247 63.1904 4.3414C63.1461 4.37033 62.2525 5.08046 61.2047 5.91946C59.5103 7.27617 55.2753 10.6217 55.0788 10.7589C55.0373 10.7878 54.7789 11.0008 54.5046 11.2323C54.2305 11.4637 53.6646 11.9135 53.2471 12.2317C52.8299 12.55 51.6599 13.4729 50.6474 14.2827C48.8022 15.7585 43.4193 20.0314 40.1771 22.5943C39.2253 23.3465 38.276 24.1067 38.0672 24.2836L37.6875 24.6053L38.507 25.2304C38.9578 25.5743 39.8015 26.2107 40.382 26.6447C40.9625 27.0786 43.1596 28.7356 45.2644 30.3268C47.3691 31.918 49.6288 33.6223 50.2858 34.1142C50.9429 34.606 52.0699 35.4582 52.7902 36.0078C53.5105 36.5575 54.705 37.457 55.4446 38.0067C56.1843 38.5564 59.0374 40.7105 61.785 42.7935C67.3934 47.0453 68.5056 47.8465 69.429 48.2995C70.611 48.8792 72.4222 49.4622 73.8807 49.7325C75.3165 49.9984 75.362 50 81.5062 50H87.6875V49.7427C87.6875 49.4863 87.4423 49.2902 82.8145 45.8444C81.9597 45.208 80.5982 44.1919 79.789 43.5864C76.9189 41.4391 75.1833 40.1452 73.2221 38.6906C72.1299 37.8805 71.1696 37.164 71.0882 37.0984C71.0066 37.0329 70.406 36.5831 69.7535 36.099C69.101 35.6149 67.2125 34.201 65.5566 32.9569C63.9007 31.7129 61.7431 30.1033 60.7622 29.38C57.0373 26.6338 53.9709 24.3052 53.9709 24.2226C53.9709 24.1754 55.1928 23.1981 56.6861 22.0505C58.1795 20.9031 59.8015 19.6565 60.2903 19.2804C60.7793 18.9043 61.6158 18.2623 62.1494 17.8537C62.6829 17.4452 63.8821 16.522 64.8144 15.8022C65.7466 15.0825 67.0102 14.1149 67.6222 13.652C68.673 12.8574 71.7154 10.5211 73.5161 9.12598C73.9658 8.77765 75.2004 7.83081 76.2596 7.0219C77.3189 6.21309 79.0747 4.86479 80.1613 4.02579C81.2479 3.18678 82.4827 2.23995 82.9053 1.9217C84.7485 0.533746 85.2742 0.0691633 85.0701 0.00877609C85.0083 -0.00952943 82.0693 0.00172885 78.539 0.0339213Z" fill="#6197FF"/>
<path fill-rule="evenodd" clip-rule="evenodd" d="M0.0018659 12.7333C0.0018659 23.4486 0.030256 25.4198 0.182868 25.2901C0.282565 25.2055 1.73578 23.931 3.41238 22.4578C5.08898 20.9845 6.49287 19.7556 6.53205 19.7267C6.57124 19.6978 6.93938 19.3669 7.3499 18.9914C10.1569 16.4244 11.6862 13.3905 11.8314 10.1011C11.9477 7.46698 11.2736 5.66856 9.45807 3.76983C7.4288 1.64747 4.43414 0.332138 1.10147 0.0995763L0.0018659 0.0227923V12.7333ZM37.4852 0.0976882C36.6903 0.199788 35.7039 0.56323 35.0565 0.992534C34.816 1.15199 33.539 2.23003 32.2187 3.388C30.8984 4.54609 29.6002 5.68264 29.3337 5.91373C28.4698 6.66299 24.0832 10.5065 22.8598 11.586C22.2051 12.1637 21.6372 12.66 21.5978 12.6889C21.5584 12.7178 21.0467 13.1664 20.4605 13.6857C19.8745 14.2052 19.1479 14.8433 18.8462 15.1038C17.9827 15.8492 9.89631 22.9532 8.918 23.8258C4.01536 28.1991 0.916202 33.9045 0.140614 39.9845C-0.069977 41.6354 -0.0367885 45.9157 0.191796 46.5925C0.670291 48.0089 2.3233 49.3732 4.06334 49.7876C7.36682 50.5746 10.8593 49.1022 11.7161 46.5616C11.8119 46.2772 11.8616 43.1655 11.8672 37.0816C11.8719 32.1005 11.9221 28.025 11.979 28.025C12.0358 28.025 12.4983 28.3677 13.0068 28.7865C14.02 29.6213 17.6161 32.6181 19.5926 34.2749C20.2816 34.8526 21.9269 36.2234 23.2487 37.3211C26.2995 39.8546 29.1371 42.2201 32.3211 44.8841C36.3208 48.2306 37.6193 49.2486 38.1752 49.4736C39.4105 49.9736 39.5627 49.987 44.0219 49.9877C48.19 49.9885 48.2681 49.9846 48.8014 49.7484C49.9219 49.252 50.3494 47.981 49.6834 47.126C49.5188 46.9147 47.8547 45.4545 45.9854 43.881C44.116 42.3075 42.4429 40.8968 42.2674 40.7462C42.0918 40.5956 41.6192 40.1887 41.2169 39.8421C40.8148 39.4955 40.0588 38.8564 39.5369 38.4221C37.9638 37.1126 36.676 36.0319 34.8455 34.485C33.8884 33.6762 31.8459 31.9509 30.3065 30.651C28.7671 29.3511 26.792 27.68 25.9171 26.9375C25.0422 26.1948 23.9838 25.2967 23.565 24.9417C23.1462 24.5865 22.8013 24.2723 22.7986 24.2434C22.7937 24.1909 23.8402 23.2739 26.5135 20.9883C27.2899 20.3246 28.1976 19.5446 28.5304 19.2551C28.8634 18.9656 29.883 18.0896 30.7963 17.3084C31.7097 16.5272 33.3866 15.0878 34.5228 14.1098C35.6591 13.1316 37.3385 11.6884 38.2548 10.9025C39.1711 10.1166 40.4907 8.98209 41.1871 8.38136C41.8835 7.78073 42.788 7.00332 43.197 6.65395C43.6061 6.30459 44.7053 5.36604 45.6395 4.56835C46.5738 3.77067 47.4238 2.95681 47.5281 2.75975C48.1257 1.63276 47.2788 0.34947 45.7589 0.0791982C45.1093 -0.0363474 38.4119 -0.0214288 37.4852 0.0976882Z" fill="white"/>
</svg>
